Coordinates
version=1
nRows=14
nColumns=24
inDegrees=yes

Units are S.I. units (second, meters, Newtons, ...)
Angles are in degrees.

endheader
time	pelvis_tilt	pelvis_list	pelvis_rotation	pelvis_tx	pelvis_ty	pelvis_tz	hip_flexion_r	hip_adduction_r	hip_rotation_r	knee_angle_r	ankle_angle_r	subtalar_angle_r	mtp_angle_r	hip_flexion_l	hip_adduction_l	hip_rotation_l	knee_angle_l	ankle_angle_l	subtalar_angle_l	mtp_angle_l	lumbar_extension	lumbar_bending	lumbar_rotation
      2.37500000	     15.06555322	     -1.46278059	      3.01283255	      0.97812200	      0.91363461	      0.31150012	      9.89144317	      3.35873211	     -2.12943005	    -25.90117947	     11.71906055	      0.40851925	     35.64169847	    -18.55853315	     -3.34806946	     -2.71610439	    -52.03534736	      9.93782265	      4.75810222	     57.31448616	    -29.29356353	      5.74263902	     -0.58711050
      2.38000000	     14.74241330	     -1.81771701	      3.17721343	      0.98417729	      0.91341685	      0.31178948	      9.91267911	      3.88109358	     -2.01306597	    -26.01793424	     12.01171782	      0.06364809	     34.03815825	    -17.02945877	     -3.72334653	     -2.29143357	    -54.30789948	      9.83099669	      4.15018995	     52.73756581	    -28.98165387	      6.21941145	     -0.48531188
      2.38500000	     14.42069196	     -2.17227133	      3.35844821	      0.99005280	      0.91323059	      0.31207097	      9.91875143	      4.40941886	     -1.80763358	    -26.07578542	     12.35969346	     -0.36707983	     33.31911030	    -15.45868325	     -4.06675505	     -1.81192757	    -56.55956469	      9.95461798	      3.41519661	     50.08191687	    -28.67923324	      6.69933001	     -0.45114623
      2.39000000	     14.19126726	     -2.47830718	      3.60754434	      0.99603584	      0.91333672	      0.31222576	      9.73216636	      4.87591605	     -1.66689062	    -25.99249890	     12.72613813	     -0.99336369	     33.17646685	    -14.00955529	     -4.35015070	     -1.27292018	    -58.63067477	     10.34151202	      2.67072871	     49.83422138	    -28.44932059	      7.16387508	     -0.53905708
      2.39500000	     13.93453963	     -2.74962773	      3.77853467	      1.00190159	      0.91351276	      0.31240379	      9.60676387	      5.29197944	     -1.45735791	    -25.96146753	     13.12714807	     -1.46544769	     32.10201532	    -12.54363959	     -4.53971804	     -0.83213994	    -60.59438838	     10.95577909	      1.83735549	     48.10670220	    -28.20529051	      7.56010381	     -0.51676702
      2.40000000	     13.83953843	     -2.97439593	      4.06197045	      1.00781231	      0.91405245	      0.31248509	      9.25205254	      5.63464835	     -1.38844896	    -25.84425323	     13.37554566	     -2.07225379	     31.78978367	    -11.27600986	     -4.72678998	     -0.29836021	    -62.36143927	     11.37128941	      1.22797408	     48.25807710	    -28.13238354	      7.95320625	     -0.64523151
      2.40500000	     13.68531168	     -3.16486600	      4.26269680	      1.01378287	      0.91459408	      0.31265425	      8.97720248	      5.92125806	     -1.30389124	    -25.78878589	     13.82892151	     -2.24149880	     29.66751179	     -9.96499599	     -4.86678331	      0.07169032	    -64.01432197	     11.50543150	      0.38138944	     48.36576235	    -27.99486469	      8.26387025	     -0.71342349
      2.41000000	     13.72189880	     -3.39445519	      4.44584128	      1.01965134	      0.91554931	      0.31281431	      8.45547976	      6.24275224	     -1.29869681	    -25.60341632	     13.81405544	     -2.39730792	     29.50021893	     -8.86615538	     -5.09185553	      0.33080189	    -65.51391704	     11.58878217	     -0.60563816	     48.22027825	    -28.06216318	      8.63020831	     -0.71009288
      2.41500000	     13.55343386	     -3.49034717	      4.66017158	      1.02557821	      0.91625098	      0.31302088	      8.18091929	      6.39924556	     -1.32670298	    -25.55747701	     14.26420179	     -2.08056905	     26.36675214	     -7.51922961	     -5.16419718	      0.68538792	    -66.97266100	     11.77646958	     -1.25698763	     47.54373712	    -27.90323823	      8.83990035	     -0.83008196
      2.42000000	     13.54367563	     -3.61941323	      4.91789663	      1.03143762	      0.91722036	      0.31332089	      7.66468472	      6.61347528	     -1.40085083	    -25.31598611	     14.21463945	     -1.80141653	     26.12899527	     -6.34177178	     -5.32390735	      1.01179017	    -68.31675531	     12.01743539	     -1.99874025	     47.37439857	    -27.93464074	      9.08461254	     -0.94378801
      2.42500000	     13.41692117	     -3.68270174	      5.14947469	      1.03713820	      0.91806449	      0.31345576	      7.29997609	      6.71630867	     -1.53583791	    -25.10716267	     14.51566419	     -1.36434901	     26.04218566	     -4.99778718	     -5.37700988	      1.32350852	    -69.62117262	     12.20409040	     -2.51829402	     47.21823224	    -27.84265738	      9.25586374	     -1.05697509
      2.43000000	     13.28116495	     -3.67930386	      5.36044168	      1.04281131	      0.91895835	      0.31345621	      6.93686802	      6.72098025	     -1.73603296	    -24.90198520	     14.96192991	     -1.04363851	     26.04528461	     -3.65595734	     -5.32900571	      1.57763946	    -70.81901722	     12.29943494	     -2.90697151	     47.07776208	    -27.73569294	      9.36807028	     -1.22353839
      2.43500000	     13.18872963	     -3.61892262	      5.50345026	      1.04847806	      0.91992156	      0.31348404	      6.55769505	      6.66285045	     -1.92801555	    -24.76786930	     15.45777312	     -0.87885263	     26.03415527	     -2.42315688	     -5.17417899	      1.79136693	    -71.84541670	     12.54896480	     -3.33543793	     46.96113353	    -27.68333913	      9.39651964	     -1.40137318
      2.44000000	     13.16427091	     -3.64146956	      5.70349660	      1.05424565	      0.92106174	      0.31343301	      5.94696083	      6.69457619	     -2.16918828	    -24.30649269	     15.87368535	     -0.96046053	     25.97607306	     -1.29371105	     -5.12428019	      2.02175828	    -72.74766752	     12.77151940	     -3.72437418	     46.85547255	    -27.67899159	      9.53149884	     -1.55526429
